<?xml version="1.0" encoding="UTF-8" standalone="no"?>
<svg
   id="efhgGqjtBSJ1"
   viewBox="0 0 1920 1080"
   shape-rendering="geometricPrecision"
   text-rendering="geometricPrecision"
   version="1.1"
   sodipodi:docname="Bill-finish-order.svg"
   xmlns:inkscape="http://www.inkscape.org/namespaces/inkscape"
   xmlns:sodipodi="http://sodipodi.sourceforge.net/DTD/sodipodi-0.dtd"
   xmlns="http://www.w3.org/2000/svg"
   xmlns:svg="http://www.w3.org/2000/svg">
  <defs
     id="defs33" />
  <sodipodi:namedview
     id="namedview31"
     pagecolor="#ffffff"
     bordercolor="#000000"
     borderopacity="0.25"
     inkscape:showpageshadow="2"
     inkscape:pageopacity="0.0"
     inkscape:pagecheckerboard="0"
     inkscape:deskcolor="#d1d1d1" />
  <rect
     width="807.314128"
     height="46.575815"
     rx="16"
     ry="16"
     transform="translate(556.342936 53.26889)"
     fill="#78797c"
     stroke-width="0"
     id="rect2" />
  <path
     d="M1117.931232,898.729462l-26.321872,52.643744-26.321872-52.643744-26.321872,52.643744-26.321872-52.643744-26.321872,52.643744L960,898.729462l-26.321872,52.643744-26.321872-52.643744-26.321872,52.643744-26.321872-52.643744-26.321872,52.643744-26.321872-52.643744-26.321872,52.643744-26.321872-52.643744-26.321872,52.643744-26.321872-52.643744-26.321872,52.643744-26.321872-52.643744-26.321872,52.643744-26.321872-52.643744v-519.418269q52.643744,12.28354,52.643744-35.095829t-52.643744-40.360204v-224.613306q0-.530641,737.012416,0v-.222345v224.613306q-52.643744-7.019165-52.643744,40.360204t52.643744,35.095829v519.418269v0l-26.321872,52.643744-26.321872-52.643744-26.321872,52.643744-26.321872-52.643744v.222345l-26.321872,52.643744-26.321872-52.643744-26.321872,52.643744-26.321872-52.643744"
     fill="#bfbfbf"
     stroke-width="3.84"
     stroke-linecap="square"
     id="path4" />
  <line
     x1="-15.172486"
     y1="0"
     x2="15.172486"
     y2="0"
     transform="translate(1143.936731 340.914781)"
     fill="none"
     stroke="#6a6a6a"
     stroke-width="3"
     id="line6" />
  <line
     x1="-15.172486"
     y1="0"
     x2="15.172486"
     y2="0"
     transform="translate(831.753608 340.914781)"
     fill="none"
     stroke="#6a6a6a"
     stroke-width="3"
     id="line8" />
  <line
     x1="-15.172486"
     y1="0"
     x2="15.172486"
     y2="0"
     transform="translate(986.621701 340.914781)"
     fill="none"
     stroke="#6a6a6a"
     stroke-width="3"
     id="line10" />
  <line
     x1="-15.172486"
     y1="0"
     x2="15.172486"
     y2="0"
     transform="translate(674.438578 340.914781)"
     fill="none"
     stroke="#6a6a6a"
     stroke-width="3"
     id="line12" />
  <line
     x1="-15.172486"
     y1="0"
     x2="15.172486"
     y2="0"
     transform="translate(1245.561428 340.914781)"
     fill="none"
     stroke="#6a6a6a"
     stroke-width="3"
     id="line14" />
  <line
     x1="-15.172486"
     y1="0"
     x2="15.172486"
     y2="0"
     transform="translate(933.378304 340.914781)"
     fill="none"
     stroke="#6a6a6a"
     stroke-width="3"
     id="line16" />
  <line
     x1="-15.172486"
     y1="0"
     x2="15.172486"
     y2="0"
     transform="translate(1088.246396 340.914781)"
     fill="none"
     stroke="#6a6a6a"
     stroke-width="3"
     id="line18" />
  <line
     x1="-15.172486"
     y1="0"
     x2="15.172486"
     y2="0"
     transform="translate(776.063274 340.914781)"
     fill="none"
     stroke="#6a6a6a"
     stroke-width="3"
     id="line20" />
  <line
     x1="-15.172486"
     y1="0"
     x2="15.172486"
     y2="0"
     transform="translate(1194.74908 340.914781)"
     fill="none"
     stroke="#6a6a6a"
     stroke-width="3"
     id="line22" />
  <line
     x1="-15.172486"
     y1="0"
     x2="15.172486"
     y2="0"
     transform="translate(882.565956 340.914781)"
     fill="none"
     stroke="#6a6a6a"
     stroke-width="3"
     id="line24" />
  <line
     x1="-15.172486"
     y1="0"
     x2="15.172486"
     y2="0"
     transform="translate(1037.43405 340.914781)"
     fill="none"
     stroke="#6a6a6a"
     stroke-width="3"
     id="line26" />
  <line
     x1="-15.172486"
     y1="0"
     x2="15.172486"
     y2="0"
     transform="translate(725.250926 340.914781)"
     fill="none"
     stroke="#6a6a6a"
     stroke-width="3"
     id="line28" />
</svg>
